# xmcd
#
# Track frame offsets: 
#        150
#        15429
#        29034
#        46954
#        67178
#        80838
#        93475
#        109387
#        122916
#        138266
#        151682
#        170423
#        184515
#        199529
#        217873
#
# Disc length: 3031 seconds
#
# Revision: 4
# Processed by: cddbd v1.5.2PL0 Copyright (c) Steve Scherf et al.
# Submitted via: ExactAudioCopy v0.99pb4
#
DISCID=cb0bd50f
DTITLE=Various Artist - Germany 12 Points - Eurovision Song Contest 2005
DYEAR=2005
DGENRE=Pop
TTITLE0=Mia Aegerter - Alive
TTITLE1=Allee der Kosmonauten - Dein Lied
TTITLE2=Gracia - Run And Hide
TTITLE3=Stefan Gwildis - Wunderschönes Grau
TTITLE4=Königswerq - Unschlagbar
TTITLE5=Murphy Brothers - Picking Up The Pieces
TTITLE6=Orange Blue - A Million Teardrops
TTITLE7=Nicole Süßmilch and Marco Matias - A Miracle Of Love
TTITLE8=Ellen Ten Damme - Plattgeliebt
TTITLE9=Villaine - Adrenalin
TTITLE10=Ruslana - Wild Passion
TTITLE11=Al Di Meola and Leoni Agutin - Cosmopolitan Life
TTITLE12=Lys Assia - Refrain, Du gold'ner Traum aus meiner Jugendzeit
TTITLE13=Walter Andreas Schwarz - Im Wartesaal zum großen Glück
TTITLE14=Freddy Quinn - So geht das jede Nacht
EXTD=
EXTT0=
EXTT1=
EXTT2=
EXTT3=
EXTT4=
EXTT5=
EXTT6=
EXTT7=
EXTT8=
EXTT9=
EXTT10=
EXTT11=
EXTT12=
EXTT13=
EXTT14=
PLAYORDER=
